<?xml version="1.0" encoding="UTF-8"?>
<!DOCTYPE svg PUBLIC "-//W3C//DTD SVG 1.0//EN" "http://www.w3.org/TR/2001/REC-SVG-20010904/DTD/svg10.dtd">
<svg width="227mm" height="155mm" viewBox="0 0 22700 15500">
 <g style="stroke:none;fill:rgb(0,0,0)">
  <polygon points="2553,13904 253,13904 253,13904 242,13902 253,13851 253,13798 2553,13798 2553,13851 2553,13904"/>
  <polygon points="242,13902 164,13886 164,13886 157,13885 145,13878 175,13835 185,13783 263,13799 253,13851 242,13902"/>
  <polygon points="145,13878 81,13835 81,13835 76,13831 67,13821 111,13792 140,13748 204,13791 175,13835 145,13878"/>
  <polygon points="67,13821 24,13757 24,13757 20,13751 15,13738 68,13728 111,13698 154,13762 111,13792 67,13821"/>
  <polygon points="15,13738 0,13661 0,13661 0,13651 53,13651 105,13640 120,13717 68,13728 15,13738"/>
  <polygon points="0,13651 0,12847 0,12847 0,12836 53,12847 106,12847 106,13651 53,13651 0,13651"/>
  <polygon points="0,12836 15,12758 15,12758 17,12752 24,12739 68,12769 120,12779 105,12857 53,12847 0,12836"/>
  <polygon points="24,12739 67,12675 67,12675 71,12670 81,12661 111,12705 154,12734 111,12798 68,12769 24,12739"/>
  <polygon points="81,12661 145,12618 145,12618 151,12614 164,12609 175,12662 204,12705 140,12748 111,12705 81,12661"/>
  <polygon points="164,12609 242,12594 242,12594 253,12594 253,12647 263,12699 185,12714 175,12662 164,12609"/>
  <polygon points="253,12594 4853,12594 4853,12594 4863,12594 4853,12647 4853,12700 253,12700 253,12647 253,12594"/>
  <polygon points="4863,12594 4940,12609 4940,12609 4946,12611 4959,12618 4930,12662 4919,12714 4842,12699 4853,12647 4863,12594"/>
  <polygon points="4959,12618 5023,12661 5023,12661 5028,12665 5037,12675 4994,12705 4964,12748 4900,12705 4930,12662 4959,12618"/>
  <polygon points="5037,12675 5080,12739 5080,12739 5084,12745 5088,12758 5037,12769 4993,12798 4950,12734 4994,12705 5037,12675"/>
  <polygon points="5088,12758 5104,12836 5104,12836 5106,12847 5053,12847 5001,12857 4985,12779 5037,12769 5088,12758"/>
  <polygon points="5106,12847 5106,13651 5106,13651 5104,13661 5053,13651 5000,13651 5000,12847 5053,12847 5106,12847"/>
  <polygon points="5104,13661 5088,13738 5088,13738 5087,13745 5080,13757 5037,13728 4985,13717 5001,13640 5053,13651 5104,13661"/>
  <polygon points="5080,13757 5037,13821 5037,13821 5033,13826 5023,13835 4994,13792 4950,13762 4993,13698 5037,13728 5080,13757"/>
  <polygon points="5023,13835 4959,13878 4959,13878 4953,13882 4940,13886 4930,13835 4900,13791 4964,13748 4994,13792 5023,13835"/>
  <polygon points="4940,13886 4863,13902 4863,13902 4853,13904 4853,13851 4842,13799 4919,13783 4930,13835 4940,13886"/>
  <polygon points="4853,13851 4853,13904 2553,13904 2553,13851 2553,13798 4853,13798 4853,13851"/>
 </g>
 <g style="font-family:Arial;font-size:494;font-weight:700">
  <g style="stroke:none;fill:rgb(0,0,0)">
   <text x="1176" y="13425">BuildExecutor
   </text>
  </g>
  <g style="stroke:none;fill:rgb(187,224,227)">
   <polygon points="11354,1257 9054,1257 8976,1241 8912,1198 8869,1134 8854,1057 8854,253 8869,175 8912,111 8976,68 9054,53 13655,53 13732,68 13796,111 13839,175 13855,253 13855,1057 13839,1134 13796,1198 13732,1241 13655,1257 11354,1257"/>
  </g>
  <g style="stroke:none;fill:rgb(0,0,0)">
   <polygon points="11354,1310 9054,1310 9054,1310 9043,1308 9054,1257 9054,1204 11354,1204 11354,1257 11354,1310"/>
   <polygon points="9043,1308 8965,1292 8965,1292 8958,1291 8946,1284 8976,1241 8986,1189 9064,1205 9054,1257 9043,1308"/>
   <polygon points="8946,1284 8882,1241 8882,1241 8877,1237 8868,1227 8912,1198 8941,1154 9005,1197 8976,1241 8946,1284"/>
   <polygon points="8868,1227 8825,1163 8825,1163 8821,1157 8816,1144 8869,1134 8912,1104 8955,1168 8912,1198 8868,1227"/>
   <polygon points="8816,1144 8801,1067 8801,1067 8801,1057 8854,1057 8906,1046 8921,1123 8869,1134 8816,1144"/>
   <polygon points="8801,1057 8801,253 8801,253 8801,242 8854,253 8907,253 8907,1057 8854,1057 8801,1057"/>
   <polygon points="8801,242 8816,164 8816,164 8818,158 8825,145 8869,175 8921,185 8906,263 8854,253 8801,242"/>
   <polygon points="8825,145 8868,81 8868,81 8872,76 8882,67 8912,111 8955,140 8912,204 8869,175 8825,145"/>
   <polygon points="8882,67 8946,24 8946,24 8952,20 8965,15 8976,68 9005,111 8941,154 8912,111 8882,67"/>
   <polygon points="8965,15 9043,0 9043,0 9054,0 9054,53 9064,105 8986,120 8976,68 8965,15"/>
   <polygon points="9054,0 13655,0 13655,0 13665,0 13655,53 13655,106 9054,106 9054,53 9054,0"/>
   <polygon points="13665,0 13742,15 13742,15 13748,17 13761,24 13732,68 13721,120 13644,105 13655,53 13665,0"/>
   <polygon points="13761,24 13825,67 13825,67 13830,71 13839,81 13796,111 13766,154 13702,111 13732,68 13761,24"/>
   <polygon points="13839,81 13882,145 13882,145 13886,151 13890,164 13839,175 13795,204 13752,140 13796,111 13839,81"/>
   <polygon points="13890,164 13906,242 13906,242 13908,253 13855,253 13803,263 13787,185 13839,175 13890,164"/>
   <polygon points="13908,253 13908,1057 13908,1057 13906,1067 13855,1057 13802,1057 13802,253 13855,253 13908,253"/>
   <polygon points="13906,1067 13890,1144 13890,1144 13889,1151 13882,1163 13839,1134 13787,1123 13803,1046 13855,1057 13906,1067"/>
   <polygon points="13882,1163 13839,1227 13839,1227 13835,1232 13825,1241 13796,1198 13752,1168 13795,1104 13839,1134 13882,1163"/>
   <polygon points="13825,1241 13761,1284 13761,1284 13755,1288 13742,1292 13732,1241 13702,1197 13766,1154 13796,1198 13825,1241"/>
   <polygon points="13742,1292 13665,1308 13665,1308 13655,1310 13655,1257 13644,1205 13721,1189 13732,1241 13742,1292"/>
   <polygon points="13655,1257 13655,1310 11354,1310 11354,1257 11354,1204 13655,1204 13655,1257"/>
   <text x="10350" y="831">SCMPoller
   </text>
   <polygon points="6552,7100 4252,7100 4252,7100 4241,7098 4252,7047 4252,6994 6552,6994 6552,7047 6552,7100"/>
   <polygon points="4241,7098 4163,7082 4163,7082 4156,7081 4144,7074 4174,7031 4184,6979 4262,6995 4252,7047 4241,7098"/>
   <polygon points="4144,7074 4080,7031 4080,7031 4075,7027 4066,7017 4110,6988 4139,6944 4203,6987 4174,7031 4144,7074"/>
   <polygon points="4066,7017 4023,6953 4023,6953 4019,6947 4014,6934 4067,6924 4110,6894 4153,6958 4110,6988 4066,7017"/>
   <polygon points="4014,6934 3999,6857 3999,6857 3999,6847 4052,6847 4104,6836 4119,6913 4067,6924 4014,6934"/>
   <polygon points="3999,6847 3999,6043 3999,6043 3999,6032 4052,6043 4105,6043 4105,6847 4052,6847 3999,6847"/>
   <polygon points="3999,6032 4014,5954 4014,5954 4016,5948 4023,5935 4067,5965 4119,5975 4104,6053 4052,6043 3999,6032"/>
   <polygon points="4023,5935 4066,5871 4066,5871 4070,5866 4080,5857 4110,5901 4153,5930 4110,5994 4067,5965 4023,5935"/>
   <polygon points="4080,5857 4144,5814 4144,5814 4150,5810 4163,5805 4174,5858 4203,5901 4139,5944 4110,5901 4080,5857"/>
   <polygon points="4163,5805 4241,5790 4241,5790 4252,5790 4252,5843 4262,5895 4184,5910 4174,5858 4163,5805"/>
   <polygon points="4252,5790 8853,5790 8853,5790 8863,5790 8853,5843 8853,5896 4252,5896 4252,5843 4252,5790"/>
   <polygon points="8863,5790 8940,5805 8940,5805 8946,5807 8959,5814 8930,5858 8919,5910 8842,5895 8853,5843 8863,5790"/>
   <polygon points="8959,5814 9023,5857 9023,5857 9028,5861 9037,5871 8994,5901 8964,5944 8900,5901 8930,5858 8959,5814"/>
   <polygon points="9037,5871 9080,5935 9080,5935 9084,5941 9088,5954 9037,5965 8993,5994 8950,5930 8994,5901 9037,5871"/>
   <polygon points="9088,5954 9104,6032 9104,6032 9106,6043 9053,6043 9001,6053 8985,5975 9037,5965 9088,5954"/>
   <polygon points="9106,6043 9106,6847 9106,6847 9104,6857 9053,6847 9000,6847 9000,6043 9053,6043 9106,6043"/>
   <polygon points="9104,6857 9088,6934 9088,6934 9087,6941 9080,6953 9037,6924 8985,6913 9001,6836 9053,6847 9104,6857"/>
   <polygon points="9080,6953 9037,7017 9037,7017 9033,7022 9023,7031 8994,6988 8950,6958 8993,6894 9037,6924 9080,6953"/>
   <polygon points="9023,7031 8959,7074 8959,7074 8953,7078 8940,7082 8930,7031 8900,6987 8964,6944 8994,6988 9023,7031"/>
   <polygon points="8940,7082 8863,7098 8863,7098 8853,7100 8853,7047 8842,6995 8919,6979 8930,7031 8940,7082"/>
   <polygon points="8853,7047 8853,7100 6552,7100 6552,7047 6552,6994 8853,6994 8853,7047"/>
   <text x="5058" y="6625">BuildScheduler
   </text>
   <polygon points="15954,7100 13654,7100 13654,7100 13643,7098 13654,7047 13654,6994 15954,6994 15954,7047 15954,7100"/>
   <polygon points="13643,7098 13565,7082 13565,7082 13558,7081 13546,7074 13576,7031 13586,6979 13664,6995 13654,7047 13643,7098"/>
   <polygon points="13546,7074 13482,7031 13482,7031 13477,7027 13468,7017 13512,6988 13541,6944 13605,6987 13576,7031 13546,7074"/>
   <polygon points="13468,7017 13425,6953 13425,6953 13421,6947 13416,6934 13469,6924 13512,6894 13555,6958 13512,6988 13468,7017"/>
   <polygon points="13416,6934 13401,6857 13401,6857 13401,6847 13454,6847 13506,6836 13521,6913 13469,6924 13416,6934"/>
   <polygon points="13401,6847 13401,6043 13401,6043 13401,6032 13454,6043 13507,6043 13507,6847 13454,6847 13401,6847"/>
   <polygon points="13401,6032 13416,5954 13416,5954 13418,5948 13425,5935 13469,5965 13521,5975 13506,6053 13454,6043 13401,6032"/>
   <polygon points="13425,5935 13468,5871 13468,5871 13472,5866 13482,5857 13512,5901 13555,5930 13512,5994 13469,5965 13425,5935"/>
   <polygon points="13482,5857 13546,5814 13546,5814 13552,5810 13565,5805 13576,5858 13605,5901 13541,5944 13512,5901 13482,5857"/>
   <polygon points="13565,5805 13643,5790 13643,5790 13654,5790 13654,5843 13664,5895 13586,5910 13576,5858 13565,5805"/>
   <polygon points="13654,5790 18254,5790 18254,5790 18264,5790 18254,5843 18254,5896 13654,5896 13654,5843 13654,5790"/>
   <polygon points="18264,5790 18341,5805 18341,5805 18347,5807 18360,5814 18331,5858 18320,5910 18243,5895 18254,5843 18264,5790"/>
   <polygon points="18360,5814 18424,5857 18424,5857 18429,5861 18438,5871 18395,5901 18365,5944 18301,5901 18331,5858 18360,5814"/>
   <polygon points="18438,5871 18481,5935 18481,5935 18485,5941 18489,5954 18438,5965 18394,5994 18351,5930 18395,5901 18438,5871"/>
   <polygon points="18489,5954 18505,6032 18505,6032 18507,6043 18454,6043 18402,6053 18386,5975 18438,5965 18489,5954"/>
   <polygon points="18507,6043 18507,6847 18507,6847 18505,6857 18454,6847 18401,6847 18401,6043 18454,6043 18507,6043"/>
   <polygon points="18505,6857 18489,6934 18489,6934 18488,6941 18481,6953 18438,6924 18386,6913 18402,6836 18454,6847 18505,6857"/>
   <polygon points="18481,6953 18438,7017 18438,7017 18434,7022 18424,7031 18395,6988 18351,6958 18394,6894 18438,6924 18481,6953"/>
   <polygon points="18424,7031 18360,7074 18360,7074 18354,7078 18341,7082 18331,7031 18301,6987 18365,6944 18395,6988 18424,7031"/>
   <polygon points="18341,7082 18264,7098 18264,7098 18254,7100 18254,7047 18243,6995 18320,6979 18331,7031 18341,7082"/>
   <polygon points="18254,7047 18254,7100 15954,7100 15954,7047 15954,6994 18254,6994 18254,7047"/>
   <text x="14183" y="6625">CheckoutManager
   </text>
   <polygon points="20152,13900 17852,13900 17852,13900 17841,13898 17852,13847 17852,13794 20152,13794 20152,13847 20152,13900"/>
   <polygon points="17841,13898 17763,13882 17763,13882 17756,13881 17744,13874 17774,13831 17784,13779 17862,13795 17852,13847 17841,13898"/>
   <polygon points="17744,13874 17680,13831 17680,13831 17675,13827 17666,13817 17710,13788 17739,13744 17803,13787 17774,13831 17744,13874"/>
   <polygon points="17666,13817 17623,13753 17623,13753 17619,13747 17614,13734 17667,13724 17710,13694 17753,13758 17710,13788 17666,13817"/>
   <polygon points="17614,13734 17599,13657 17599,13657 17599,13647 17652,13647 17704,13636 17719,13713 17667,13724 17614,13734"/>
   <polygon points="17599,13647 17599,12843 17599,12843 17599,12832 17652,12843 17705,12843 17705,13647 17652,13647 17599,13647"/>
   <polygon points="17599,12832 17614,12754 17614,12754 17616,12748 17623,12735 17667,12765 17719,12775 17704,12853 17652,12843 17599,12832"/>
   <polygon points="17623,12735 17666,12671 17666,12671 17670,12666 17680,12657 17710,12701 17753,12730 17710,12794 17667,12765 17623,12735"/>
   <polygon points="17680,12657 17744,12614 17744,12614 17750,12610 17763,12605 17774,12658 17803,12701 17739,12744 17710,12701 17680,12657"/>
   <polygon points="17763,12605 17841,12590 17841,12590 17852,12590 17852,12643 17862,12695 17784,12710 17774,12658 17763,12605"/>
   <polygon points="17852,12590 22452,12590 22452,12590 22462,12590 22452,12643 22452,12696 17852,12696 17852,12643 17852,12590"/>
   <polygon points="22462,12590 22539,12605 22539,12605 22545,12607 22558,12614 22529,12658 22518,12710 22441,12695 22452,12643 22462,12590"/>
   <polygon points="22558,12614 22622,12657 22622,12657 22627,12661 22636,12671 22593,12701 22563,12744 22499,12701 22529,12658 22558,12614"/>
   <polygon points="22636,12671 22679,12735 22679,12735 22683,12741 22687,12754 22636,12765 22592,12794 22549,12730 22593,12701 22636,12671"/>
   <polygon points="22687,12754 22703,12832 22703,12832 22705,12843 22652,12843 22600,12853 22584,12775 22636,12765 22687,12754"/>
   <polygon points="22705,12843 22705,13647 22705,13647 22703,13657 22652,13647 22599,13647 22599,12843 22652,12843 22705,12843"/>
   <polygon points="22703,13657 22687,13734 22687,13734 22686,13741 22679,13753 22636,13724 22584,13713 22600,13636 22652,13647 22703,13657"/>
   <polygon points="22679,13753 22636,13817 22636,13817 22632,13822 22622,13831 22593,13788 22549,13758 22592,13694 22636,13724 22679,13753"/>
   <polygon points="22622,13831 22558,13874 22558,13874 22552,13878 22539,13882 22529,13831 22499,13787 22563,13744 22593,13788 22622,13831"/>
   <polygon points="22539,13882 22462,13898 22462,13898 22452,13900 22452,13847 22441,13795 22518,13779 22529,13831 22539,13882"/>
   <polygon points="22452,13847 22452,13900 20152,13900 20152,13847 20152,13794 22452,13794 22452,13847"/>
   <text x="19698" y="13425">SCM
   </text>
   <polygon points="20152,12643 19992,12325 20310,12324 20152,12643"/>
   <polygon points="18454,6392 20152,6392 20152,6392 20160,6392 20168,6394 20176,6397 20183,6402 20189,6407 20194,6413 20199,6420 20202,6428 20205,6445 20152,6445 20152,6498 18454,6498 18454,6392"/>
   <polygon points="20152,6445 20205,6445 20205,12388 20099,12388 20099,6445 20152,6445"/>
   <polygon points="15954,5843 15794,5525 16112,5524 15954,5843"/>
   <polygon points="13855,602 15954,602 15954,602 15962,602 15970,604 15978,607 15985,612 15991,617 15996,623 16001,630 16004,638 16007,655 15954,655 15954,708 13855,708 13855,602"/>
   <polygon points="15954,655 16007,655 16007,5588 15901,5588 15901,655 15954,655"/>
   <polygon points="2553,12647 2393,12329 2711,12328 2553,12647"/>
   <polygon points="4052,6498 2553,6498 2553,6445 2500,6445 2500,6445 2500,6436 2502,6428 2505,6420 2510,6413 2515,6407 2521,6402 2528,6397 2536,6394 2553,6392 4052,6392 4052,6498"/>
   <polygon points="2553,6445 2606,6445 2606,12392 2500,12392 2500,6445 2553,6445"/>
   <polygon points="6552,5843 6392,5525 6710,5524 6552,5843"/>
   <polygon points="8854,708 6552,708 6552,655 6499,655 6499,655 6499,646 6501,638 6504,630 6509,623 6514,617 6520,612 6527,607 6535,604 6552,602 8854,602 8854,708"/>
   <polygon points="6552,655 6605,655 6605,5588 6499,5588 6499,655 6552,655"/>
  </g>
  <g style="stroke:none;fill:rgb(187,224,227)">
   <polygon points="11354,12854 9054,12854 8976,12838 8912,12795 8869,12731 8854,12654 8854,11851 8869,11773 8912,11709 8976,11666 9054,11651 13655,11651 13732,11666 13796,11709 13839,11773 13855,11851 13855,12654 13839,12731 13796,12795 13732,12838 13655,12854 11354,12854"/>
  </g>
  <g style="stroke:none;fill:rgb(0,0,0)">
   <polygon points="11354,12907 9054,12907 9054,12907 9043,12905 9054,12854 9054,12801 11354,12801 11354,12854 11354,12907"/>
   <polygon points="9043,12905 8965,12889 8965,12889 8958,12888 8946,12881 8976,12838 8986,12786 9064,12802 9054,12854 9043,12905"/>
   <polygon points="8946,12881 8882,12838 8882,12838 8877,12834 8868,12824 8912,12795 8941,12751 9005,12794 8976,12838 8946,12881"/>
   <polygon points="8868,12824 8825,12760 8825,12760 8821,12754 8816,12741 8869,12731 8912,12701 8955,12765 8912,12795 8868,12824"/>
   <polygon points="8816,12741 8801,12664 8801,12664 8801,12654 8854,12654 8906,12643 8921,12720 8869,12731 8816,12741"/>
   <polygon points="8801,12654 8801,11851 8801,11851 8801,11840 8854,11851 8907,11851 8907,12654 8854,12654 8801,12654"/>
   <polygon points="8801,11840 8816,11762 8816,11762 8818,11756 8825,11743 8869,11773 8921,11783 8906,11861 8854,11851 8801,11840"/>
   <polygon points="8825,11743 8868,11679 8868,11679 8872,11674 8882,11665 8912,11709 8955,11738 8912,11802 8869,11773 8825,11743"/>
   <polygon points="8882,11665 8946,11622 8946,11622 8952,11618 8965,11613 8976,11666 9005,11709 8941,11752 8912,11709 8882,11665"/>
   <polygon points="8965,11613 9043,11598 9043,11598 9054,11598 9054,11651 9064,11703 8986,11718 8976,11666 8965,11613"/>
   <polygon points="9054,11598 13655,11598 13655,11598 13665,11598 13655,11651 13655,11704 9054,11704 9054,11651 9054,11598"/>
   <polygon points="13665,11598 13742,11613 13742,11613 13748,11615 13761,11622 13732,11666 13721,11718 13644,11703 13655,11651 13665,11598"/>
   <polygon points="13761,11622 13825,11665 13825,11665 13830,11669 13839,11679 13796,11709 13766,11752 13702,11709 13732,11666 13761,11622"/>
   <polygon points="13839,11679 13882,11743 13882,11743 13886,11749 13890,11762 13839,11773 13795,11802 13752,11738 13796,11709 13839,11679"/>
   <polygon points="13890,11762 13906,11840 13906,11840 13908,11851 13855,11851 13803,11861 13787,11783 13839,11773 13890,11762"/>
   <polygon points="13908,11851 13908,12654 13908,12654 13906,12664 13855,12654 13802,12654 13802,11851 13855,11851 13908,11851"/>
   <polygon points="13906,12664 13890,12741 13890,12741 13889,12748 13882,12760 13839,12731 13787,12720 13803,12643 13855,12654 13906,12664"/>
   <polygon points="13882,12760 13839,12824 13839,12824 13835,12829 13825,12838 13796,12795 13752,12765 13795,12701 13839,12731 13882,12760"/>
   <polygon points="13825,12838 13761,12881 13761,12881 13755,12885 13742,12889 13732,12838 13702,12794 13766,12751 13796,12795 13825,12838"/>
   <polygon points="13742,12889 13665,12905 13665,12905 13655,12907 13655,12854 13644,12802 13721,12786 13732,12838 13742,12889"/>
   <polygon points="13655,12854 13655,12907 11354,12907 11354,12854 11354,12801 13655,12801 13655,12854"/>
   <text x="10665" y="12420">Trigger
   </text>
   <polygon points="6552,7047 6711,7364 6393,7365 6552,7047"/>
   <polygon points="8854,12305 6552,12305 6552,12305 6543,12304 6535,12302 6527,12299 6520,12294 6514,12289 6509,12283 6504,12276 6501,12268 6499,12252 6552,12252 6552,12199 8854,12199 8854,12305"/>
   <polygon points="6552,12252 6499,12252 6499,7301 6605,7301 6605,12252 6552,12252"/>
   <polygon points="15954,7047 16113,7364 15795,7365 15954,7047"/>
   <polygon points="13855,12199 15954,12199 15954,12252 16007,12252 16007,12252 16006,12260 16004,12268 16001,12276 15996,12283 15991,12289 15985,12294 15978,12299 15970,12302 15954,12305 13855,12305 13855,12199"/>
   <polygon points="15954,12252 15901,12252 15901,7301 16007,7301 16007,12252 15954,12252"/>
  </g>
  <g style="stroke:none;fill:rgb(0,153,255)">
   <polygon points="18995,10251 18917,10235 18917,10235 18910,10233 18897,10227 18928,10184 18938,10132 19016,10148 19006,10200 18995,10251"/>
   <polygon points="18897,10227 18834,10183 18834,10183 18829,10179 18820,10169 18865,10140 18895,10096 18958,10140 18928,10184 18897,10227"/>
   <polygon points="18820,10169 18777,10104 18777,10104 18774,10098 18769,10085 18822,10075 18866,10045 18909,10110 18865,10140 18820,10169"/>
   <polygon points="18769,10085 18754,10007 18754,10007 18754,10000 18754,9987 18807,9997 18859,9986 18874,10064 18822,10075 18769,10085"/>
   <polygon points="18754,9987 18769,9908 18769,9908 18771,9901 18777,9888 18822,9918 18874,9927 18859,10006 18807,9997 18754,9987"/>
   <polygon points="18777,9888 18820,9823 18820,9823 18824,9818 18834,9809 18865,9853 18909,9882 18866,9947 18822,9918 18777,9888"/>
   <polygon points="18834,9809 18897,9765 18897,9765 18904,9761 18917,9756 18928,9809 18958,9852 18895,9896 18865,9853 18834,9809"/>
   <polygon points="18917,9756 18995,9741 18995,9741 19002,9741 19016,9741 19006,9794 19016,9846 18938,9861 18928,9809 18917,9756"/>
   <polygon points="19016,9741 19093,9756 19093,9756 19100,9758 19113,9765 19083,9809 19072,9861 18995,9846 19006,9794 19016,9741"/>
   <polygon points="19113,9765 19176,9809 19176,9809 19181,9813 19190,9823 19146,9853 19115,9896 19052,9852 19083,9809 19113,9765"/>
   <polygon points="19190,9823 19233,9888 19233,9888 19236,9894 19240,9907 19189,9918 19144,9947 19101,9882 19146,9853 19190,9823"/>
   <polygon points="19240,9907 19256,9986 19256,9986 19257,9993 19256,10007 19205,9997 19153,10007 19137,9928 19189,9918 19240,9907"/>
   <polygon points="19256,10007 19240,10085 19240,10085 19239,10092 19233,10104 19189,10075 19137,10064 19153,9986 19205,9997 19256,10007"/>
   <polygon points="19233,10104 19190,10169 19190,10169 19186,10174 19176,10183 19146,10140 19101,10110 19144,10045 19189,10075 19233,10104"/>
   <polygon points="19176,10183 19113,10227 19113,10227 19107,10231 19093,10235 19083,10184 19052,10140 19115,10096 19146,10140 19176,10183"/>
   <polygon points="19093,10235 19016,10251 19016,10251 19009,10252 18995,10251 19006,10200 18995,10148 19072,10132 19083,10184 19093,10235"/>
   <polygon points="19006,8599 19165,8916 18847,8917 19006,8599"/>
   <polygon points="18953,9798 18953,8853 19059,8853 19059,9798 18953,9798"/>
  </g>
 </g>
 <g style="font-family:Arial;font-size:494;font-weight:700">
  <g style="stroke:none;fill:rgb(0,0,0)">
   <g transform="translate(19438,8104) rotate(-270) translate(-19438,-8104)">
    <text x="19438" y="8104">changesets
    </text>
   </g>
   <polygon points="20655,10076 20495,9758 20813,9757 20655,10076"/>
   <polygon points="20708,8877 20708,9821 20602,9821 20602,8877 20708,8877"/>
   <g transform="translate(21039,8135) rotate(-270) translate(-21039,-8135)">
    <text x="21039" y="8135">2: checkout()
    </text>
   </g>
   <polygon points="3051,10041 2891,9723 3209,9722 3051,10041"/>
   <polygon points="3104,8842 3104,9786 2998,9786 2998,8842 3104,8842"/>
   <g transform="translate(3435,8104) rotate(-270) translate(-3435,-8104)">
    <text x="3435" y="8104">4: execute(build)
    </text>
   </g>
   <polygon points="16452,4044 16292,3726 16610,3725 16452,4044"/>
   <polygon points="16505,2844 16505,3789 16399,3789 16399,2844 16505,2844"/>
   <g transform="translate(16836,2102) rotate(-270) translate(-16836,-2102)">
    <text x="16836" y="2102">1: checkout()
    </text>
   </g>
  </g>
  <g style="stroke:none;fill:rgb(0,153,255)">
   <polygon points="14792,4302 14714,4286 14714,4286 14707,4284 14694,4278 14725,4235 14735,4183 14813,4199 14803,4251 14792,4302"/>
   <polygon points="14694,4278 14631,4234 14631,4234 14626,4230 14617,4220 14662,4191 14692,4147 14755,4191 14725,4235 14694,4278"/>
   <polygon points="14617,4220 14574,4155 14574,4155 14571,4149 14566,4136 14619,4126 14663,4096 14706,4161 14662,4191 14617,4220"/>
   <polygon points="14566,4136 14551,4058 14551,4058 14551,4051 14551,4038 14604,4048 14656,4037 14671,4115 14619,4126 14566,4136"/>
   <polygon points="14551,4038 14566,3959 14566,3959 14568,3952 14574,3939 14619,3969 14671,3978 14656,4057 14604,4048 14551,4038"/>
   <polygon points="14574,3939 14617,3874 14617,3874 14621,3869 14631,3860 14662,3904 14706,3933 14663,3998 14619,3969 14574,3939"/>
   <polygon points="14631,3860 14694,3816 14694,3816 14701,3812 14714,3807 14725,3860 14755,3903 14692,3947 14662,3904 14631,3860"/>
   <polygon points="14714,3807 14792,3792 14792,3792 14799,3792 14813,3792 14803,3845 14813,3897 14735,3912 14725,3860 14714,3807"/>
   <polygon points="14813,3792 14890,3807 14890,3807 14897,3809 14910,3816 14880,3860 14869,3912 14792,3897 14803,3845 14813,3792"/>
   <polygon points="14910,3816 14973,3860 14973,3860 14978,3864 14987,3874 14943,3904 14912,3947 14849,3903 14880,3860 14910,3816"/>
   <polygon points="14987,3874 15030,3939 15030,3939 15033,3945 15037,3958 14986,3969 14941,3998 14898,3933 14943,3904 14987,3874"/>
   <polygon points="15037,3958 15053,4037 15053,4037 15054,4044 15053,4058 15002,4048 14950,4058 14934,3979 14986,3969 15037,3958"/>
   <polygon points="15053,4058 15037,4136 15037,4136 15036,4143 15030,4155 14986,4126 14934,4115 14950,4037 15002,4048 15053,4058"/>
   <polygon points="15030,4155 14987,4220 14987,4220 14983,4225 14973,4234 14943,4191 14898,4161 14941,4096 14986,4126 15030,4155"/>
   <polygon points="14973,4234 14910,4278 14910,4278 14904,4282 14890,4286 14880,4235 14849,4191 14912,4147 14943,4191 14973,4234"/>
   <polygon points="14890,4286 14813,4302 14813,4302 14806,4303 14792,4302 14803,4251 14792,4199 14869,4183 14880,4235 14890,4286"/>
   <polygon points="14803,2650 14962,2967 14644,2968 14803,2650"/>
   <polygon points="14750,3850 14750,2904 14856,2904 14856,3850 14750,3850"/>
  </g>
  <g style="stroke:none;fill:rgb(0,0,0)">
   <g transform="translate(15236,2102) rotate(-270) translate(-15236,-2102)">
    <text x="15236" y="2102">changesets
    </text>
   </g>
  </g>
  <g style="stroke:none;fill:rgb(204,0,153)">
   <polygon points="16452,8850 16611,9167 16293,9168 16452,8850"/>
   <polygon points="16399,10050 16399,9104 16505,9104 16505,10050 16399,10050"/>
  </g>
  <g style="stroke:none;fill:rgb(0,0,0)">
   <g transform="translate(16836,8139) rotate(-270) translate(-16836,-8139)">
    <text x="16836" y="8139">1: DoCheckOut
    </text>
   </g>
   <polygon points="7051,8854 7210,9171 6892,9172 7051,8854"/>
   <polygon points="6998,10053 6998,9108 7104,9108 7104,10053 6998,10053"/>
   <g transform="translate(7483,7707) rotate(-270) translate(-7483,-7707)">
    <text x="7483" y="7707">3: schedule(build)
    </text>
   </g>
   <polygon points="7051,3704 6891,3386 7209,3385 7051,3704"/>
   <polygon points="7104,2500 7104,3449 6998,3449 6998,2500 7104,2500"/>
   <g transform="translate(7483,1300) rotate(-270) translate(-7483,-1300)">
    <text x="7483" y="1300">3: schedule(build)
    </text>
   </g>
   <polygon points="11253,12853 11412,13170 11094,13171 11253,12853"/>
   <polygon points="11200,15252 11200,13107 11306,13107 11306,15252 11200,15252"/>
  </g>
 </g>
 <g style="font-family:Arial;font-size:635;font-weight:700">
  <g style="stroke:none;fill:rgb(0,0,0)">
   <text x="11509" y="14592">0: trig()
   </text>
  </g>
  <g style="stroke:none;fill:rgb(255,255,153)">
   <polygon points="8255,8850 12051,8850 12051,10650 8255,10650 8255,8850"/>
  </g>
  <g style="stroke:rgb(0,0,0);fill:none">
   <polyline points="10153,10650 8255,10650 8255,8850 12051,8850 12051,10650 10153,10650" style="fill:none"/>
  </g>
 </g>
 <g style="font-family:Arial;font-size:423;font-weight:400">
  <g style="stroke:none;fill:rgb(0,0,0)">
   <text x="8493" y="9375">Schedule even 
   </text>
   <text x="8493" y="9882">when build has 
   </text>
   <text x="8493" y="10389">no changes
   </text>
  </g>
  <g style="stroke:none;fill:rgb(255,255,153)">
   <polygon points="8255,2452 12051,2452 12051,4251 8255,4251 8255,2452"/>
  </g>
  <g style="stroke:rgb(0,0,0);fill:none">
   <polyline points="10153,4251 8255,4251 8255,2452 12051,2452 12051,4251 10153,4251" style="fill:none"/>
  </g>
  <g style="stroke:none;fill:rgb(0,0,0)">
   <text x="8493" y="2981">Schedule 
   </text>
  </g>
 </g>
 <g style="font-family:Arial;font-size:423;font-style:italic;font-weight:400">
  <g style="stroke:none;fill:rgb(0,0,0)">
   <text x="10047" y="2981">only
   </text>
  </g>
 </g>
 <g style="font-family:Arial;font-size:423;font-weight:400">
  <g style="stroke:none;fill:rgb(0,0,0)">
   <text x="8493" y="3488">if build has 
   </text>
   <text x="8493" y="3995">changes
   </text>
  </g>
 </g>
</svg>